<svg xmlns="http://www.w3.org/2000/svg" viewBox="0 0 200 200" width="100%" height="100%">
  <defs>
    <linearGradient id="favGold" x1="0%" y1="0%" x2="100%" y2="100%">
      <stop offset="0%" stop-color="#E5B24D" />
      <stop offset="100%" stop-color="#C6922E" />
    </linearGradient>
  </defs>
  
  <g transform="translate(18, 15)">
    <!-- 1. The Serif Number '1' (Navy) -->
    <path 
      d="M 50 150 L 90 150 L 90 143 L 74 143 L 74 48 L 30 64 L 30 76 L 50 68 L 50 143 L 35 143 Z" 
      fill="#0F2B5B" 
    />

    <!-- 2. The Door Frame (Navy) -->
    <path 
      d="M 95 47 L 195 47 L 195 140 L 95 140" 
      fill="none" 
      stroke="#0F2B5B" 
      stroke-width="6" 
      stroke-linejoin="miter" 
    />

    <!-- 3. The Open Door (Gold) -->
    <polygon 
      points="95,47 145,57 145,145 95,150" 
      fill="url(#favGold)" 
    />
    
    <!-- Door Knob (White dot) -->
    <circle cx="136" cy="100" r="2.5" fill="#FFFFFF" />

    <!-- 4. Stylized Figure reaching up (Navy) -->
    <circle cx="162" cy="95" r="7" fill="#0F2B5B" />
    <path 
      d="M 148 136 C 154 126 164 115 155 108 C 160 107 165 104 168 98 C 174 90 179 84 184 91 C 178 104 175 120 148 136 Z" 
      fill="#0F2B5B" 
    />

    <!-- 5. Gold Star -->
    <polygon 
      points="186,73 188,77 192,77 189,80 190,84 186,81 182,84 184,80 181,77 185,77" 
      fill="url(#favGold)" 
    />

    <!-- 6. Curved path ground (Light Gray) -->
    <path 
      d="M 102 149 C 135 140 165 140 205 147" 
      fill="none" 
      stroke="#C2C2C2" 
      stroke-width="3.5" 
      stroke-linecap="round" 
    />
  </g>
</svg>